<?xml version="1.0" encoding="UTF-8"?>
<svg width="42px" height="42px" viewBox="0 0 42 42" version="1.1" xmlns="http://www.w3.org/2000/svg" xmlns:xlink="http://www.w3.org/1999/xlink">
    <!-- Generator: Sketch 49 (51002) - http://www.bohemiancoding.com/sketch -->
    <title>Untitled</title>
    <desc>Created with Sketch.</desc>
    <defs>
        <path d="M19,0.297090909 C8.68749091,0.297090909 0.297090909,8.68749091 0.297090909,19 C0.297090909,29.3125091 8.68749091,37.7029091 19,37.7029091 C29.3152727,37.7029091 37.7029091,29.3125091 37.7029091,19 C37.7029091,8.68749091 29.3125091,0.297090909 19,0.297090909 Z M19.0027636,32.9156 C13.7801818,32.9156 9.53247273,28.6672 9.53247273,23.4480727 L9.53247273,23.3934909 C9.57807273,22.6189818 9.68654545,21.8147636 9.85927273,21.0001818 C9.86410909,20.9594182 9.8724,20.9138182 9.88621818,20.8647636 C11.5374909,13.1625091 18.0175273,5.71865455 18.2932,5.40290909 L19,4.59592727 L19.7068,5.40290909 C19.9824727,5.71589091 26.4625091,13.1625091 28.1117091,20.8675273 C28.1248364,20.9158909 28.1331273,20.9621818 28.1386545,21.0001818 C28.3113818,21.8147636 28.4219273,22.6217455 28.4647636,23.3934909 L28.4675273,23.4480727 C28.4702909,28.6699636 24.2225818,32.9156 19.0027636,32.9156 Z" id="path-1"></path>
    </defs>
    <g id="Page-1" stroke="none" stroke-width="1" fill="none" fill-rule="evenodd">
        <g id="Group-57" transform="translate(2.000000, 2.000000)">
            <circle id="Oval-2" fill="#FFFFFF" cx="19.3454545" cy="17.9636364" r="15.8909091"></circle>
            <g id="Group-56">
                <path d="M26.2628364,21.2316364 C25.0157455,15.4729091 20.7113818,9.65130909 19,7.50810909 C17.2886182,9.65130909 12.9787273,15.4729091 11.7344,21.2316364 L11.7344,21.2371636 L11.7129818,21.3373455 C11.5568364,22.0683273 11.4538909,22.7861818 11.4138182,23.4750182 C11.4269455,27.6446545 14.8248364,31.0314909 19,31.0314909 C23.1724,31.0314909 26.5675273,27.6446545 26.5841091,23.4750182 C26.5433455,22.7889455 26.4410909,22.0683273 26.2842545,21.3373455 L26.2628364,21.2316364 Z M23.9662545,24.5680364 C23.2456364,26.0493455 22.0469091,27.2798545 20.5925455,28.0384727 C20.4522909,28.1117091 20.3037455,28.1434909 20.1579636,28.1434909 C19.8180364,28.1434909 19.4884727,27.9576364 19.3212727,27.6363636 C19.0808364,27.1748364 19.2618545,26.6055273 19.7233818,26.3650909 C20.8219273,25.7930182 21.7256364,24.8616727 22.2707636,23.7417091 C22.5001455,23.2725818 23.0646182,23.0777455 23.5316727,23.3071273 C24.0008,23.5337455 24.1956364,24.1009818 23.9662545,24.5680364 Z" id="Fill-1" fill="#5B0000"></path>
                <g id="Fill-2">
                    <use fill="#5B0000" fill-rule="evenodd" xlink:href="#path-1"></use>
                    <path stroke="#FFFFFF" stroke-width="1.39999998" d="M19,-0.402909079 C29.6991084,-0.402909079 38.4029091,8.30089159 38.4029091,19 C38.4029091,29.7000464 29.7009341,38.4029091 19,38.4029091 C8.30089159,38.4029091 -0.402909079,29.6991084 -0.402909079,19 C-0.402909079,8.30089159 8.30089159,-0.402909079 19,-0.402909079 Z M18.9999996,5.65835295 L18.8205037,5.86329022 C18.5431621,6.18094718 18.1555507,6.64729644 17.647709,7.29911699 C16.8324982,8.34544939 15.9998713,9.50308966 15.1924894,10.7453568 C12.928239,14.2292151 11.2745121,17.728454 10.5599965,21.0545603 C10.5573026,21.0641238 10.5554929,21.0734202 10.5440473,21.1453842 C10.3799248,21.9193859 10.2751653,22.6889528 10.2324727,23.3934909 L10.2324727,23.4480727 C10.2324727,28.2812434 14.1674239,32.2156 19.0027636,32.2156 C23.8370562,32.2156 27.7700857,28.2823723 27.7684229,23.4834704 L27.7658395,23.4322853 C27.7251857,22.6998614 27.6199475,21.9285589 27.445944,21.1009397 C27.4430279,21.0808909 27.4396806,21.0638919 27.4272133,21.0140383 C26.7242276,17.7297081 25.0709049,14.2289312 22.8071852,10.7445638 C21.9997443,9.50173303 21.1668999,8.34354132 20.3522694,7.29800817 C19.8429415,6.64431395 19.4279217,6.14534718 19.1802198,5.8641176 L18.9999996,5.65835295 Z"></path>
                </g>
            </g>
        </g>
    </g>
</svg>